<svg xmlns="http://www.w3.org/2000/svg" width="25" height="25" viewBox="0 0 25 25">
  <g id="그룹_228" data-name="그룹 228" transform="translate(-1749 -350)">
    <g id="사각형_781" data-name="사각형 781" transform="translate(1749 350)" fill="#fff" stroke="#707070" stroke-width="0.5">
      <rect width="25" height="25" rx="3" stroke="none"/>
      <rect x="0.25" y="0.25" width="24.5" height="24.5" rx="2.75" fill="none"/>
    </g>
    <path id="trash" d="M161.894-826.5a1.083,1.083,0,0,1-.795-.331,1.083,1.083,0,0,1-.33-.794v-10.687H160v-1.125h3.525V-840h4.95v.563H172v1.125h-.769v10.688a1.079,1.079,0,0,1-.337.787,1.079,1.079,0,0,1-.788.338Zm8.213-11.812h-8.213v10.688h8.213Zm-6.225,9.075h1.125v-7.481h-1.125Zm3.113,0h1.125v-7.481h-1.125Zm-5.1-9.075v0Z" transform="translate(1595.5 1196.25)" fill="#3d3d3d"/>
  </g>
</svg>
