<svg xmlns="http://www.w3.org/2000/svg" width="25" height="25" viewBox="0 0 25 25">
  <g id="그룹_227" data-name="그룹 227" transform="translate(-1719 -742)">
    <g id="사각형_635" data-name="사각형 635" transform="translate(1719 742)" fill="#fff" stroke="#707070" stroke-width="0.5">
      <rect width="25" height="25" rx="3" stroke="none"/>
      <rect x="0.25" y="0.25" width="24.5" height="24.5" rx="2.75" fill="none"/>
    </g>
    <path id="pen" d="M120.982-841.982h.72l7.252-7.252-.72-.72-7.252,7.252Zm10.052-7.956-2.1-2.1.688-.688a.934.934,0,0,1,.688-.278.934.934,0,0,1,.688.278l.72.72a.934.934,0,0,1,.278.688.934.934,0,0,1-.278.688Zm-.688.688L122.1-841H120v-2.1l8.251-8.251Zm-1.752-.344-.36-.36.72.72Z" transform="translate(1606 1602)" fill="#3d3d3d"/>
  </g>
</svg>
