<svg xmlns="http://www.w3.org/2000/svg" width="17.108" height="12.831" viewBox="0 0 17.108 12.831">
  <g id="그룹_1" data-name="그룹 1" transform="translate(-1108 -697)">
    <path id="패스_2" data-name="패스 2" d="M8.554,3a7.546,7.546,0,0,1,3.675.98,10.815,10.815,0,0,1,2.637,2.1A14.163,14.163,0,0,1,17.033,9.1a.713.713,0,0,1,0,.638,14.163,14.163,0,0,1-2.167,3.02,10.815,10.815,0,0,1-2.637,2.1,7.546,7.546,0,0,1-3.675.98,7.546,7.546,0,0,1-3.675-.98,10.815,10.815,0,0,1-2.637-2.1A14.163,14.163,0,0,1,.075,9.734a.713.713,0,0,1,0-.638,14.163,14.163,0,0,1,2.167-3.02,10.815,10.815,0,0,1,2.637-2.1A7.546,7.546,0,0,1,8.554,3Zm7.028,6.416A13.374,13.374,0,0,0,13.8,7.025a7.217,7.217,0,0,0-5.247-2.6c-3.846,0-6.363,3.843-7.028,4.99a13.374,13.374,0,0,0,1.781,2.391,7.217,7.217,0,0,0,5.247,2.6C12.4,14.406,14.917,10.563,15.582,9.416Z" transform="translate(1108 694)" fill="#b9b9b9"/>
    <path id="타원_2" data-name="타원 2" d="M1.851-1A2.851,2.851,0,1,1-1,1.851,2.855,2.855,0,0,1,1.851-1Zm0,4.277A1.426,1.426,0,1,0,.426,1.851,1.427,1.427,0,0,0,1.851,3.277Z" transform="translate(1114.703 701.564)" fill="#b9b9b9"/>
  </g>
</svg>
