<svg xmlns="http://www.w3.org/2000/svg" width="12" height="15" viewBox="0 0 12 15">
  <path id="pin-add" d="M165.25-871h1.5v-2.25H169v-1.5h-2.25V-877h-1.5v2.25H163v1.5h2.25Zm.75,4.012a20.638,20.638,0,0,0,3.394-3.816,5.823,5.823,0,0,0,1.106-3.047,4.531,4.531,0,0,0-1.3-3.347,4.346,4.346,0,0,0-3.2-1.3,4.346,4.346,0,0,0-3.2,1.3,4.531,4.531,0,0,0-1.3,3.347,5.823,5.823,0,0,0,1.106,3.047A20.639,20.639,0,0,0,166-866.988ZM166-865a24.934,24.934,0,0,1-4.509-4.772A7.421,7.421,0,0,1,160-873.85a5.8,5.8,0,0,1,1.809-4.481A5.994,5.994,0,0,1,166-880a5.994,5.994,0,0,1,4.191,1.669A5.8,5.8,0,0,1,172-873.85a7.421,7.421,0,0,1-1.491,4.078A24.935,24.935,0,0,1,166-865ZM166-874Z" transform="translate(-160 880)" fill="#2d2d2d"/>
</svg>
