<svg xmlns="http://www.w3.org/2000/svg" width="22" height="15" viewBox="0 0 22 15">
  <path id="show" d="M51-788.25a4.092,4.092,0,0,0,3.01-1.24A4.106,4.106,0,0,0,55.25-792.5a4.092,4.092,0,0,0-1.24-3.01A4.106,4.106,0,0,0,51-796.75a4.091,4.091,0,0,0-3.01,1.24A4.106,4.106,0,0,0,46.75-792.5a4.092,4.092,0,0,0,1.24,3.01A4.106,4.106,0,0,0,51-788.25Zm-.009-1.45a2.686,2.686,0,0,1-1.982-.818,2.716,2.716,0,0,1-.812-1.987,2.686,2.686,0,0,1,.818-1.982,2.716,2.716,0,0,1,1.987-.812,2.686,2.686,0,0,1,1.982.818,2.716,2.716,0,0,1,.813,1.987,2.686,2.686,0,0,1-.818,1.982A2.716,2.716,0,0,1,50.994-789.7ZM51-785a11.2,11.2,0,0,1-6.6-2.075A12.641,12.641,0,0,1,40-792.5a12.641,12.641,0,0,1,4.4-5.425A11.2,11.2,0,0,1,51-800a11.2,11.2,0,0,1,6.6,2.075A12.641,12.641,0,0,1,62-792.5a12.641,12.641,0,0,1-4.4,5.425A11.2,11.2,0,0,1,51-785Z" transform="translate(-40 800)" fill="#cbcbcb"/>
</svg>
