<svg xmlns="http://www.w3.org/2000/svg" width="19.716" height="14.008" viewBox="0 0 19.716 14.008">
  <path id="person-3" d="M54.933-774.526l-2.865-2.887.947-.947,1.917,1.917,3.835-3.835.947.97Zm-7.715.293a3.3,3.3,0,0,1-2.436-.947,3.3,3.3,0,0,1-.947-2.436,3.3,3.3,0,0,1,.947-2.436A3.3,3.3,0,0,1,47.219-781a3.3,3.3,0,0,1,2.436.947,3.3,3.3,0,0,1,.947,2.436,3.3,3.3,0,0,1-.947,2.436A3.3,3.3,0,0,1,47.219-774.233ZM40-766.992v-2.12a2.683,2.683,0,0,1,.395-1.432,2.39,2.39,0,0,1,1.139-.959,17.329,17.329,0,0,1,3.008-1.049,11.819,11.819,0,0,1,2.673-.3,11.72,11.72,0,0,1,2.665.3,17.42,17.42,0,0,1,3,1.049,2.613,2.613,0,0,1,1.15.97,2.571,2.571,0,0,1,.406,1.421v2.12Zm1.353-1.353h11.73v-.767a1.285,1.285,0,0,0-.2-.688,1.248,1.248,0,0,0-.541-.485,13.326,13.326,0,0,0-2.707-.981,11.525,11.525,0,0,0-2.414-.237,11.687,11.687,0,0,0-2.425.237,13.231,13.231,0,0,0-2.718.981,1.181,1.181,0,0,0-.53.485,1.34,1.34,0,0,0-.192.688Zm5.865-7.241a1.972,1.972,0,0,0,1.455-.575,1.972,1.972,0,0,0,.575-1.455,1.972,1.972,0,0,0-.575-1.455,1.972,1.972,0,0,0-1.455-.575,1.972,1.972,0,0,0-1.455.575,1.972,1.972,0,0,0-.575,1.455,1.972,1.972,0,0,0,.575,1.455A1.972,1.972,0,0,0,47.219-775.586ZM47.219-769.924ZM47.219-777.616Z" transform="translate(-40 781)" fill="#2d2d2d"/>
</svg>
