<svg xmlns="http://www.w3.org/2000/svg" width="15" height="15" viewBox="0 0 15 15">
  <path id="images" d="M121.25-825a1.2,1.2,0,0,1-.875-.375,1.2,1.2,0,0,1-.375-.875v-12.5a1.2,1.2,0,0,1,.375-.875,1.2,1.2,0,0,1,.875-.375h12.5a1.2,1.2,0,0,1,.875.375,1.2,1.2,0,0,1,.375.875v12.5a1.2,1.2,0,0,1-.375.875,1.2,1.2,0,0,1-.875.375Zm0-1.25h12.5v-12.5h-12.5Zm1.167-2.021H132.6l-3.062-4.083-2.75,3.563-1.937-2.646Zm-1.167,2.021v0Zm3.336-8.125a1,1,0,0,0,.737-.3,1.011,1.011,0,0,0,.3-.74,1,1,0,0,0-.3-.737,1.011,1.011,0,0,0-.74-.3,1,1,0,0,0-.737.3,1.011,1.011,0,0,0-.3.74,1,1,0,0,0,.3.737A1.011,1.011,0,0,0,124.586-834.375Z" transform="translate(-120 840)" fill="#2d2d2d"/>
</svg>
