<svg xmlns="http://www.w3.org/2000/svg" width="9.6" height="12" viewBox="0 0 9.6 12">
  <path id="find" d="M164.32-871.21a2.338,2.338,0,0,0,.607-.083,2.149,2.149,0,0,0,.592-.262l1.65,1.65.6-.6L166.1-872.17a1.714,1.714,0,0,0,.232-.542,2.54,2.54,0,0,0,.068-.583,2.017,2.017,0,0,0-.6-1.485,2.017,2.017,0,0,0-1.485-.6,2.017,2.017,0,0,0-1.485.6,2.017,2.017,0,0,0-.6,1.485,2.017,2.017,0,0,0,.6,1.485A2.017,2.017,0,0,0,164.32-871.21Zm0-.9a1.149,1.149,0,0,1-.848-.337,1.149,1.149,0,0,1-.337-.848,1.149,1.149,0,0,1,.337-.847,1.15,1.15,0,0,1,.848-.338,1.15,1.15,0,0,1,.848.338,1.149,1.149,0,0,1,.337.847,1.149,1.149,0,0,1-.337.848A1.149,1.149,0,0,1,164.32-872.11ZM160.9-868a.863.863,0,0,1-.63-.27.863.863,0,0,1-.27-.63v-10.2a.863.863,0,0,1,.27-.63.864.864,0,0,1,.63-.27h5.415l3.285,3.285v7.815a.863.863,0,0,1-.27.63.863.863,0,0,1-.63.27Zm4.965-8.31v-2.79H160.9v10.2h7.8v-7.41ZM160.9-879.1v0Z" transform="translate(-160 880)" fill="#fff"/>
</svg>
