<svg xmlns="http://www.w3.org/2000/svg" width="12.842" height="15" viewBox="0 0 12.842 15">
  <path id="person" d="M126.421-866l-2.158-2.158H121.07a1.027,1.027,0,0,1-.749-.321,1.027,1.027,0,0,1-.321-.749v-10.7a1.02,1.02,0,0,1,.321-.756,1.037,1.037,0,0,1,.749-.314h10.7a1.037,1.037,0,0,1,.749.314,1.02,1.02,0,0,1,.321.756v10.7a1.027,1.027,0,0,1-.321.749,1.027,1.027,0,0,1-.749.321h-3.193Zm-5.351-3.906a9.189,9.189,0,0,1,2.424-1.6,6.985,6.985,0,0,1,2.925-.615,7,7,0,0,1,2.927.615,9.18,9.18,0,0,1,2.426,1.6V-879.93h-10.7Zm5.386-3.621a2.377,2.377,0,0,0,1.748-.713,2.377,2.377,0,0,0,.713-1.748,2.377,2.377,0,0,0-.713-1.748,2.377,2.377,0,0,0-1.748-.713,2.377,2.377,0,0,0-1.748.713,2.377,2.377,0,0,0-.713,1.748,2.377,2.377,0,0,0,.713,1.748A2.377,2.377,0,0,0,126.457-873.527Zm0-1.07a1.342,1.342,0,0,1-.985-.406,1.342,1.342,0,0,1-.406-.985,1.342,1.342,0,0,1,.406-.985,1.342,1.342,0,0,1,.985-.406,1.342,1.342,0,0,1,.985.406,1.342,1.342,0,0,1,.406.985,1.342,1.342,0,0,1-.406.985A1.342,1.342,0,0,1,126.457-874.6Zm-.036,7.01,1.641-1.641h2.729v-.16a7.039,7.039,0,0,0-2.063-1.24,6.422,6.422,0,0,0-2.307-.419,6.438,6.438,0,0,0-2.3.419,7.015,7.015,0,0,0-2.069,1.24v.16h2.729ZM126.421-874.918Z" transform="translate(-120 881)" fill="#2d2d2d"/>
</svg>
