<svg xmlns="http://www.w3.org/2000/svg" width="13.333" height="15" viewBox="0 0 13.333 15">
  <path id="user" d="M166.667-840l6.667,5v10H160v-10Zm0,9.792a2.2,2.2,0,0,0,1.623-.669,2.216,2.216,0,0,0,.667-1.625,2.2,2.2,0,0,0-.669-1.623,2.216,2.216,0,0,0-1.625-.667,2.2,2.2,0,0,0-1.623.669,2.217,2.217,0,0,0-.667,1.625,2.2,2.2,0,0,0,.669,1.623A2.216,2.216,0,0,0,166.669-830.208Zm0-1.25a1.016,1.016,0,0,1-.743-.3,1,1,0,0,1-.3-.74,1.017,1.017,0,0,1,.3-.743,1,1,0,0,1,.74-.3,1.016,1.016,0,0,1,.743.3,1,1,0,0,1,.3.74,1.017,1.017,0,0,1-.3.743A1,1,0,0,1,166.67-831.458Zm-.024,3.75a6.677,6.677,0,0,0-2.219.375,6.737,6.737,0,0,0-1.969,1.083h8.4a7.028,7.028,0,0,0-1.99-1.083A6.677,6.677,0,0,0,166.646-827.708Zm-5.4-6.75v7.6a8.471,8.471,0,0,1,2.511-1.552,7.726,7.726,0,0,1,2.885-.552,7.739,7.739,0,0,1,2.913.563,8.6,8.6,0,0,1,2.524,1.563v-7.625l-5.417-3.937ZM166.667-832.5Z" transform="translate(-160 840)" fill="#2d2d2d"/>
</svg>
