<svg xmlns="http://www.w3.org/2000/svg" width="17.096" height="17.096" viewBox="0 0 17.096 17.096">
  <path id="expand" d="M88.548-868.7l3.7-3.7-.919-.9-2.778,2.778L85.77-873.29l-.919.9Zm0,5.791a8.269,8.269,0,0,1-3.312-.673,8.669,8.669,0,0,1-2.725-1.838,8.671,8.671,0,0,1-1.838-2.725A8.271,8.271,0,0,1,80-871.452a8.324,8.324,0,0,1,.673-3.334,8.543,8.543,0,0,1,1.838-2.714,8.762,8.762,0,0,1,2.725-1.827A8.27,8.27,0,0,1,88.548-880a8.323,8.323,0,0,1,3.334.673A8.632,8.632,0,0,1,94.6-877.5a8.633,8.633,0,0,1,1.827,2.714,8.324,8.324,0,0,1,.673,3.334,8.271,8.271,0,0,1-.673,3.312,8.763,8.763,0,0,1-1.827,2.725,8.542,8.542,0,0,1-2.714,1.838A8.322,8.322,0,0,1,88.548-862.9Zm0-1.282a6.992,6.992,0,0,0,5.15-2.126,7.019,7.019,0,0,0,2.116-5.139A7.009,7.009,0,0,0,93.7-876.6a7.009,7.009,0,0,0-5.15-2.116,7.019,7.019,0,0,0-5.139,2.116,6.992,6.992,0,0,0-2.126,5.15,7,7,0,0,0,2.126,5.139A7,7,0,0,0,88.548-864.187ZM88.548-871.452Z" transform="translate(-80 880)" fill="#2d2d2d"/>
</svg>
