<svg xmlns="http://www.w3.org/2000/svg" width="13.49" height="15" viewBox="0 0 13.49 15">
  <path id="lock" d="M170.177-908.484a1.108,1.108,0,0,0,.814-.336,1.11,1.11,0,0,0,.335-.815,1.079,1.079,0,0,0-.335-.806,1.125,1.125,0,0,0-.814-.326,1.089,1.089,0,0,0-.8.332,1.1,1.1,0,0,0-.33.807,1.11,1.11,0,0,0,.33.809A1.085,1.085,0,0,0,170.177-908.484Zm0,2.283a2.231,2.231,0,0,0,1.068-.266,2.2,2.2,0,0,0,.807-.729,5.228,5.228,0,0,0-.91-.386,3.182,3.182,0,0,0-.961-.146,3.182,3.182,0,0,0-.961.146,5.228,5.228,0,0,0-.91.386,2.209,2.209,0,0,0,.8.729A2.21,2.21,0,0,0,170.174-906.2Zm-6.913-8.89h4.462v-1.6a2.228,2.228,0,0,0-.644-1.63,2.143,2.143,0,0,0-1.588-.652,2.143,2.143,0,0,0-1.588.652,2.228,2.228,0,0,0-.644,1.63Zm3.553,9.508H161.03a.985.985,0,0,1-.712-.318.985.985,0,0,1-.318-.712v-7.448a.985.985,0,0,1,.318-.712.985.985,0,0,1,.712-.318h1.2v-1.6a3.228,3.228,0,0,1,.944-2.351,3.121,3.121,0,0,1,2.317-.961,3.121,3.121,0,0,1,2.317.961,3.228,3.228,0,0,1,.944,2.351v1.6h1.2a.985.985,0,0,1,.712.318.985.985,0,0,1,.318.712v1.493a3.012,3.012,0,0,0-.463-.069q-.24-.017-.566-.017v-1.407H161.03v7.448H166.2a4.058,4.058,0,0,0,.257.523A4.27,4.27,0,0,0,166.814-905.584Zm3.364.584a3.186,3.186,0,0,1-2.334-.978,3.186,3.186,0,0,1-.978-2.334,3.186,3.186,0,0,1,.978-2.334,3.186,3.186,0,0,1,2.334-.978,3.186,3.186,0,0,1,2.334.978,3.186,3.186,0,0,1,.978,2.334,3.186,3.186,0,0,1-.978,2.334A3.186,3.186,0,0,1,170.177-905Zm-9.148-9.062v0Z" transform="translate(-160 920)" fill="#2d2d2d"/>
</svg>
